<?xml version="1.0" encoding="UTF-8"?>
<svg width="60px" height="80px" viewBox="0 0 60 80" version="1.1" xmlns="http://www.w3.org/2000/svg" xmlns:xlink="http://www.w3.org/1999/xlink">
    <!-- Generator: Sketch 55.2 (78181) - https://sketchapp.com -->
    <title>Shape</title>
    <desc>Created with Sketch.</desc>
    <g id="Page-1" stroke="none" stroke-width="1" fill="none" fill-rule="evenodd">
        <path d="M38.27,16 L29.91,0 L21.57,16 L0.2,16 L0.2,79.68 L27.51,79.68 L27.51,63.88 L31.85,60.32 L31.85,79.68 L59.65,79.68 L59.65,16 L38.27,16 Z M29.92,10.29 L40.64,30.81 L31.85,30.81 L31.85,45 L27.51,48.45 L27.51,30.81 L19.21,30.81 L29.92,10.29 Z M36.78,75.34 L36.78,51.62 L28.84,57.76 L27.51,58.82 L27.51,58.82 L22.72,62.5 L22.72,75.34 L1.89,75.34 L4.89,73.17 L4.89,22.51 L1.89,20.34 L19.3,20.34 L11.38,35.53 L22.72,35.53 L22.72,57.41 L36.78,45.94 L36.78,35.53 L48.48,35.53 L40.54,20.34 L57.85,20.34 L55,22.43 L55,72.88 L58.38,75.34 L36.78,75.34 Z" id="Shape" fill="#231F20" fill-rule="nonzero"></path>
    </g>
</svg>