<svg xmlns="http://www.w3.org/2000/svg" xmlns:xlink="http://www.w3.org/1999/xlink" viewBox="0 0 4.05 4.05"><defs><style>.cls-1{fill:url(#linear-gradient);}</style><linearGradient id="linear-gradient" x1="4.04" y1="2.15" x2="0" y2="1.9" gradientUnits="userSpaceOnUse"><stop offset="0" stop-color="#00a69c" stop-opacity="0.8"/><stop offset="0.78" stop-color="#37b34a"/></linearGradient></defs><title>icon-source</title><g id="Layer_2" data-name="Layer 2"><g id="Orange_Sherbet" data-name="Orange Sherbet"><path class="cls-1" d="M2,0a2,2,0,1,0,2,2A2,2,0,0,0,2,0ZM2.5.53a.19.19,0,0,0-.09.14,1.43,1.43,0,0,1-.07.3L1.48.74a.32.32,0,0,1,0-.07.14.14,0,0,0-.05-.1A1.53,1.53,0,0,1,2,.45,1.51,1.51,0,0,1,2.5.53Zm-.89.64.59.16a2.58,2.58,0,0,1-.26.38A2.31,2.31,0,0,1,1.61,1.17Zm.61,1.71L1.7,2.75a1.8,1.8,0,0,1,.24-.45A1.62,1.62,0,0,1,2.22,2.88ZM.45,2A1.53,1.53,0,0,1,1.1.76,2.46,2.46,0,0,0,1.69,2a2.18,2.18,0,0,0-.48,1.36A1.58,1.58,0,0,1,.45,2ZM1.57,3.53a.24.24,0,0,0,0-.09,1.83,1.83,0,0,1,0-.31l.67.16a.6.6,0,0,1,0,.15.25.25,0,0,0,0,.13,1.39,1.39,0,0,1-.3,0A1.76,1.76,0,0,1,1.57,3.53Zm1.1-.07A2.26,2.26,0,0,0,2.19,2a2.73,2.73,0,0,0,.42-.65.26.26,0,0,0,.07-.1V1.18A1.67,1.67,0,0,0,2.79.69s0,0,0,0a1.57,1.57,0,0,1-.11,2.81Z"/></g></g></svg>