<svg xmlns="http://www.w3.org/2000/svg" viewBox="0 0 22.48 22.48"><defs><style>.cls-1{fill:#cfd2d3;}</style></defs><title>icon-dosido</title><g id="Layer_2" data-name="Layer 2"><g id="Orange_Sherbet" data-name="Orange Sherbet"><polygon class="cls-1" points="17.86 9.96 18.82 10.62 19.82 11.24 18.82 11.86 17.86 12.52 16.9 11.86 15.9 11.24 16.9 10.62 17.86 9.96"/><polygon class="cls-1" points="4.62 9.96 5.58 10.62 6.58 11.24 5.58 11.86 4.62 12.52 3.66 11.86 2.66 11.24 3.66 10.62 4.62 9.96"/><polygon class="cls-1" points="14.45 6.42 15.4 7.08 16.41 7.7 15.4 8.33 14.45 8.98 13.49 8.33 12.49 7.7 13.49 7.08 14.45 6.42"/><polygon class="cls-1" points="7.83 6.42 8.79 7.08 9.79 7.7 8.79 8.33 7.83 8.98 6.87 8.33 5.87 7.7 6.87 7.08 7.83 6.42"/><polygon class="cls-1" points="11.24 2.89 12.2 3.54 13.2 4.17 12.2 4.79 11.24 5.45 10.28 4.79 9.28 4.17 10.28 3.54 11.24 2.89"/><polygon class="cls-1" points="11.24 17.03 12.2 17.69 13.2 18.31 12.2 18.93 11.24 19.59 10.28 18.93 9.28 18.31 10.28 17.69 11.24 17.03"/><path class="cls-1" d="M11.24,13.25l-1.3-.89-1.8-1.12L10,10.1l1.28-.87,1.3.88,1.8,1.13-1.82,1.14Zm-1.39-2,.59.36.8.55.78-.53.61-.38L12,10.87l-.8-.54-.78.53Z"/><polygon class="cls-1" points="14.45 13.5 15.4 14.15 16.41 14.78 15.4 15.4 14.45 16.05 13.49 15.4 12.49 14.78 13.49 14.15 14.45 13.5"/><polygon class="cls-1" points="7.83 13.5 8.79 14.15 9.79 14.78 8.79 15.4 7.83 16.05 6.87 15.4 5.87 14.78 6.87 14.15 7.83 13.5"/><path class="cls-1" d="M11.24,22.48A11.24,11.24,0,1,1,22.48,11.24,11.25,11.25,0,0,1,11.24,22.48Zm0-21.27a10,10,0,1,0,10,10A10,10,0,0,0,11.24,1.21Z"/></g></g></svg>