<svg xmlns="http://www.w3.org/2000/svg" xmlns:xlink="http://www.w3.org/1999/xlink" viewBox="0 0 4.05 4.05"><defs><style>.cls-1{fill:url(#New_Gradient_Swatch_1);}.cls-2{fill:#e1ca3d;}</style><linearGradient id="New_Gradient_Swatch_1" y1="2.02" x2="4.05" y2="2.02" gradientUnits="userSpaceOnUse"><stop offset="0" stop-color="#fff100" stop-opacity="0.8"/><stop offset="0.78" stop-color="#faaf40"/></linearGradient></defs><title>icon-terpines</title><g id="Layer_2" data-name="Layer 2"><g id="Isolation_Mode" data-name="Isolation Mode"><path class="cls-1" d="M2,0a2,2,0,1,0,2,2A2,2,0,0,0,2,0ZM3.6,2A1.58,1.58,0,1,1,.45,2,1.58,1.58,0,0,1,3.6,2Z"/><path class="cls-2" d="M1.08,2.42,1,2.4a.21.21,0,0,1-.12-.28L1,1.81a.22.22,0,0,1,.28-.13A.23.23,0,0,1,1.41,2l-.13.31A.22.22,0,0,1,1.08,2.42Z"/><path class="cls-2" d="M1.83,2.73l-.08,0a.21.21,0,0,1-.12-.28l.38-1a.22.22,0,1,1,.41.16L2,2.59A.2.2,0,0,1,1.83,2.73Z"/><path class="cls-2" d="M2.85,2.42l-.09,0a.22.22,0,0,1-.12-.28l.13-.31a.21.21,0,0,1,.28-.13A.22.22,0,0,1,3.17,2l-.12.31A.24.24,0,0,1,2.85,2.42Z"/></g></g></svg>