<svg xmlns="http://www.w3.org/2000/svg" viewBox="0 0 23.36 21.42"><defs><style>.cls-1{fill:#cfd2d3;}</style></defs><title>icon-sherbert</title><g id="Layer_2" data-name="Layer 2"><g id="Isolation_Mode" data-name="Isolation Mode"><path class="cls-1" d="M17.37,7.51l5.92-3.42a.14.14,0,0,0,0-.24L16.7,0a.36.36,0,0,0-.32,0L11.44,2.89a.1.1,0,0,1-.15-.09V1.35a.1.1,0,0,0-.14-.09l-1,.59a.32.32,0,0,0-.17.29V3.38a.09.09,0,0,1-.1.1A7.64,7.64,0,0,0,3,10.08a.21.21,0,0,1-.2.19H.26a.25.25,0,0,0-.26.25V11a10.47,10.47,0,1,0,20.93,0v-.41a.28.28,0,0,0-.27-.28H18.23A.27.27,0,0,1,18,10a7.24,7.24,0,0,0-.68-2.28A.19.19,0,0,1,17.37,7.51Zm-6.91,12.6V20a9.08,9.08,0,0,1-9-8.23.14.14,0,0,1,.15-.16H2.78a.16.16,0,0,1,.16.14,8.74,8.74,0,0,0,.14.87,7.48,7.48,0,0,0,.74,2,7.56,7.56,0,0,0,13.29,0,7.42,7.42,0,0,0,.79-2.2c0-.2.07-.41.09-.61a.18.18,0,0,1,.18-.17h1.16a.18.18,0,0,1,.18.2,9.11,9.11,0,0,1-9,8.2v.07ZM12.39,3.85l4-2.3a.31.31,0,0,1,.32,0l4.05,2.34a.09.09,0,0,1,0,.16l-4,2.32a.43.43,0,0,1-.41,0L12.39,4.09A.14.14,0,0,1,12.39,3.85Zm-.94,1.2,3.81,2.2a.84.84,0,0,1,.31.28,6.1,6.1,0,0,1,1,2.43.26.26,0,0,1-.25.31H4.56a.2.2,0,0,1-.2-.25,6.17,6.17,0,0,1,6.1-5.18h.32A1.45,1.45,0,0,1,11.45,5.05ZM16.5,12.4a6.33,6.33,0,0,1-1,2.15,6.18,6.18,0,0,1-10.13,0,6.15,6.15,0,0,1-1-2.15c0-.2-.08-.39-.1-.58a.15.15,0,0,1,.15-.17H16.42a.19.19,0,0,1,.18.21C16.57,12,16.54,12.21,16.5,12.4Z"/></g></g></svg>