<svg xmlns="http://www.w3.org/2000/svg" viewBox="0 0 20.76 20.76"><defs><style>.cls-1{fill:#cfd2d3;}</style></defs><title>icon-gmo</title><g id="Layer_2" data-name="Layer 2"><g id="Isolation_Mode" data-name="Isolation Mode"><path class="cls-1" d="M20.76,10.38h0V9.73H7.47V11h9.65a6.8,6.8,0,1,1-.19-2.34h1.35A8.08,8.08,0,1,0,18.43,11h1a9.06,9.06,0,1,1-.13-2.34h1.32A10.36,10.36,0,1,0,20.73,11h0v-.5a.86.86,0,0,0,0-.16Z"/><path class="cls-1" d="M6.36,14.76l0-8.64a6.65,6.65,0,0,0,0,8.64Z"/><path class="cls-1" d="M14.39,8.7h1.36A6.72,6.72,0,0,0,14.4,6.12Z"/><path class="cls-1" d="M14.38,12.09v2.67a6.7,6.7,0,0,0,1.39-2.67Z"/><path class="cls-1" d="M7.85,15.52H13a.38.38,0,0,0,.39-.43V12.51a.38.38,0,0,0-.34-.42H7.8a.38.38,0,0,0-.35.42v2.58A.39.39,0,0,0,7.85,15.52Zm4.28-1.36a.12.12,0,0,1-.12.12H8.91a.12.12,0,0,1-.12-.12v-.7a.13.13,0,0,1,.12-.12H12a.13.13,0,0,1,.12.12Z"/><path class="cls-1" d="M12.2,8.7h1.16a.08.08,0,0,0,.07-.08V5.81a.87.87,0,0,0-.87-.88h-1l-.06,0-1,1a.08.08,0,0,1-.11,0l-1-1,0,0h-1a.92.92,0,0,0-.92.92V8.62a.08.08,0,0,0,.08.08H8.7a.09.09,0,0,0,.08-.08V6.24h.09l.93.93h0V8.62a.08.08,0,0,0,.07.08H11a.09.09,0,0,0,.08-.08V7.17h0L12,6.24h.08V8.62A.09.09,0,0,0,12.2,8.7Z"/></g></g></svg>