<svg xmlns="http://www.w3.org/2000/svg" xmlns:xlink="http://www.w3.org/1999/xlink" viewBox="0 0 4.05 4.05"><defs><style>.cls-1{fill:url(#New_Gradient_Swatch_2);}.cls-2{fill:url(#New_Gradient_Swatch_2-2);}</style><linearGradient id="New_Gradient_Swatch_2" x1="-0.24" y1="2.17" x2="1.41" y2="2.06" gradientUnits="userSpaceOnUse"><stop offset="0" stop-color="#00adee" stop-opacity="0.8"/><stop offset="0.76" stop-color="#1b75bb"/></linearGradient><linearGradient id="New_Gradient_Swatch_2-2" x1="-0.65" y1="2.34" x2="1.31" y2="2.21" xlink:href="#New_Gradient_Swatch_2"/></defs><title>icon-breeder</title><g id="Layer_2" data-name="Layer 2"><g id="Isolation_Mode" data-name="Isolation Mode"><path class="cls-1" d="M2,0a2,2,0,1,0,2,2A2,2,0,0,0,2,0ZM3.6,2A1.58,1.58,0,1,1,.45,2,1.58,1.58,0,0,1,3.6,2Z"/><path class="cls-2" d="M2.66,2.07A1.84,1.84,0,0,0,2.15.8h0l0,0,0,0L2,.64H2l0,0,0,0h0l-.1.1,0,0h0l0,0h0a1.82,1.82,0,0,0,0,2.53v.37L2,3.53H2l.18.18V3.35h0A1.84,1.84,0,0,0,2.66,2.07Zm-.5.63V1.45a1.44,1.44,0,0,1,.13.62A1.45,1.45,0,0,1,2.16,2.7Zm-.51-.63a1.52,1.52,0,0,1,.14-.63V2.7A1.46,1.46,0,0,1,1.65,2.07Z"/></g></g></svg>