<svg xmlns="http://www.w3.org/2000/svg" xmlns:xlink="http://www.w3.org/1999/xlink" viewBox="0 0 4.05 4.05"><defs><style>.cls-1{fill:url(#linear-gradient);}.cls-2{fill:url(#linear-gradient-2);}.cls-3{fill:url(#linear-gradient-3);}.cls-4{fill:url(#linear-gradient-4);}.cls-5{fill:url(#linear-gradient-5);}</style><linearGradient id="linear-gradient" x1="-0.14" y1="2.59" x2="2.8" y2="1.82" gradientUnits="userSpaceOnUse"><stop offset="0" stop-color="#f47920" stop-opacity="0.8"/><stop offset="0.24" stop-color="#f27624" stop-opacity="0.81"/><stop offset="0.5" stop-color="#ec6e2f" stop-opacity="0.86"/><stop offset="0.75" stop-color="#e36142" stop-opacity="0.92"/><stop offset="0.97" stop-color="#d85356"/></linearGradient><linearGradient id="linear-gradient-2" x1="-0.02" y1="3.06" x2="2.93" y2="2.3" xlink:href="#linear-gradient"/><linearGradient id="linear-gradient-3" x1="-0.31" y1="1.94" x2="2.64" y2="1.17" xlink:href="#linear-gradient"/><linearGradient id="linear-gradient-4" x1="-0.29" y1="2.01" x2="2.65" y2="1.24" xlink:href="#linear-gradient"/><linearGradient id="linear-gradient-5" x1="-0.24" y1="2.22" x2="2.71" y2="1.45" xlink:href="#linear-gradient"/></defs><title>icon-aromas</title><g id="Layer_2" data-name="Layer 2"><g id="Isolation_Mode" data-name="Isolation Mode"><path class="cls-1" d="M2,0a2,2,0,1,0,2,2A2,2,0,0,0,2,0ZM2,3.6A1.58,1.58,0,1,1,3.6,2,1.57,1.57,0,0,1,2,3.6Z"/><path class="cls-2" d="M.71,2A1.32,1.32,0,1,0,3.34,2Zm1,.54a.7.7,0,0,1-.4.18.68.68,0,0,1,.19-.39.63.63,0,0,1,.4-.19A.82.82,0,0,1,1.68,2.56ZM2,3a.72.72,0,0,1-.14-.41A.75.75,0,0,1,2,2.21a.69.69,0,0,1,.15.42A.66.66,0,0,1,2,3Zm.33-.49a.75.75,0,0,1-.19-.4.75.75,0,0,1,.4.19.71.71,0,0,1,.19.4A.71.71,0,0,1,2.35,2.55Z"/><ellipse class="cls-3" cx="2.01" cy="1.34" rx="0.15" ry="0.41"/><path class="cls-4" d="M1.87,1.81a.75.75,0,0,0-.19-.39.65.65,0,0,0-.4-.19.74.74,0,0,0,.19.4A.67.67,0,0,0,1.87,1.81Z"/><path class="cls-5" d="M2.75,1.22a.78.78,0,0,0-.4.19.78.78,0,0,0-.19.4.66.66,0,0,0,.59-.59Z"/></g></g></svg>