<svg xmlns="http://www.w3.org/2000/svg" viewBox="0 0 10.36 10.36"><defs><style>.cls-1{fill:#ffffff;}</style></defs><title>icon-instagram</title><g id="Layer_2" data-name="Layer 2"><g id="Header_1" data-name="Header 1"><path class="cls-1" d="M5.18,4a1.2,1.2,0,1,0,1.2,1.2A1.2,1.2,0,0,0,5.18,4Z"/><path class="cls-1" d="M5.18,0a5.18,5.18,0,1,0,5.18,5.18A5.18,5.18,0,0,0,5.18,0Zm0,7.59A2.41,2.41,0,1,1,7.59,5.18,2.41,2.41,0,0,1,5.18,7.59ZM7.77,3.16a.58.58,0,1,1,.58-.57A.58.58,0,0,1,7.77,3.16Z"/></g></g></svg>
