<svg xmlns="http://www.w3.org/2000/svg" viewBox="0 0 21.85 27.65"><defs><style>.cls-1{fill:#cfd2d3;}</style></defs><title>icon-fatso</title><g id="Layer_2" data-name="Layer 2"><g id="Isolation_Mode" data-name="Isolation Mode"><path class="cls-1" d="M20.26,11.12H1.59a1.59,1.59,0,0,0,0,3.18H20.26a1.59,1.59,0,0,0,0-3.18Zm0,2H1.59a.41.41,0,0,1-.41-.41.41.41,0,0,1,.41-.42H20.26a.41.41,0,0,1,.41.42A.41.41,0,0,1,20.26,13.12Z"/><path class="cls-1" d="M20.26,15.21H1.59a1.59,1.59,0,1,0,0,3.18H20.26a1.59,1.59,0,0,0,0-3.18Zm0,2H1.59a.41.41,0,0,1-.41-.41.41.41,0,0,1,.41-.42H20.26a.41.41,0,0,1,.41.42A.41.41,0,0,1,20.26,17.21Z"/><path class="cls-1" d="M1.09,20.1a10.68,10.68,0,0,0,1.26,2.53,6.33,6.33,0,0,0,5.26,2.71h6.55a6.33,6.33,0,0,0,5.26-2.71,10.28,10.28,0,0,0,1.25-2.53l.17-.51a.2.2,0,0,0-.19-.27H1.05a.16.16,0,0,0-.15.2Zm17.85.4a.21.21,0,0,1,.19.29A9.65,9.65,0,0,1,18.45,22a5.17,5.17,0,0,1-4.29,2.21H7.61A5.17,5.17,0,0,1,3.32,22a8.46,8.46,0,0,1-.71-1.24.16.16,0,0,1,.14-.22Z"/><path class="cls-1" d="M20.67,9.47a10.3,10.3,0,0,0-9-7,.27.27,0,0,1-.24-.26V0l-.84.48a.71.71,0,0,0-.36.61V2.21a.26.26,0,0,1-.24.26,10.32,10.32,0,0,0-8.95,7L.91,10a.16.16,0,0,0,.16.22H20.72a.15.15,0,0,0,.15-.2Zm-17.9-.4a.17.17,0,0,1-.15-.24,9.14,9.14,0,0,1,16.54,0,.15.15,0,0,1-.14.21Z"/><circle class="cls-1" cx="10.88" cy="5.46" r="0.59"/><circle class="cls-1" cx="14.61" cy="7.22" r="0.59"/><circle class="cls-1" cx="7.16" cy="7.22" r="0.59"/><rect class="cls-1" x="10.27" y="9.74" width="1.24" height="2"/><rect class="cls-1" x="10.27" y="13.97" width="1.24" height="2"/><rect class="cls-1" x="10.27" y="17.54" width="1.24" height="2"/><path class="cls-1" d="M11.47,26.91l-.37.63a.23.23,0,0,1-.4,0l-.4-.63a.24.24,0,0,1,0-.12v-1.7a.23.23,0,0,1,.23-.23h.77a.23.23,0,0,1,.23.23v1.7A.24.24,0,0,1,11.47,26.91Z"/></g></g></svg>