<svg xmlns="http://www.w3.org/2000/svg" viewBox="0 0 110.99 136.17"><defs><style>.cls-1{fill:#231f20;}</style></defs><title>Asset 1</title><g id="Layer_2" data-name="Layer 2"><g id="Header"><path class="cls-1" d="M63.27,16,54.91,0,46.57,16H25.2V79.68H52.51V63.88l4.34-3.56V79.68h27.8V16Zm-8.35-5.71L65.64,30.81H56.85V45l-4.34,3.45V30.81h-8.3Zm6.86,65.05V51.62l-7.94,6.14-1.33,1.06v0L47.72,62.5V75.34H26.89l3-2.17V22.51l-3-2.17H44.3L36.38,35.53H47.72V57.41L61.78,45.94V35.53h11.7L65.54,20.34H82.85L80,22.43V72.88l3.38,2.46Z"/><path class="cls-1" d="M7.94,123.13v-8.57H4.64v8.57H0V102.28H4.64v7.92h3.3v-7.92h4.67v20.85Z"/><path class="cls-1" d="M18.31,123.13V102.28H29.12v4.12H23v4h5v4H23V119H29.2v4.12Z"/><path class="cls-1" d="M34.74,123.13V102.28h4.64v20.85Z"/><path class="cls-1" d="M55.24,123.13H47.38c-1.61,0-2.35-.79-2.35-2.43v-16c0-1.64.76-2.43,2.37-2.43h7.84a2.12,2.12,0,0,1,2.4,2.43v4H53v-2.46h-3.3v13H53V115H50.54v-3.9h7.1v9.6A2.12,2.12,0,0,1,55.24,123.13Z"/><path class="cls-1" d="M71.28,123.13v-8.57H68v8.57H63.34V102.28H68v7.92h3.3v-7.92H76v20.85Z"/><path class="cls-1" d="M89.65,106.4v16.73H85V106.4H81.35v-4.12h12v4.12Z"/><path class="cls-1" d="M108.59,123.13h-7.51c-1.61,0-2.37-.79-2.37-2.43v-4.58h4.64v3.22h3v-3l-6.82-4.67a1.79,1.79,0,0,1-.79-1.8v-5.13c0-1.64.76-2.43,2.37-2.43h7.54c1.61,0,2.37.76,2.37,2.4v4.42h-4.67v-3h-3v3l6.79,4.64a1.87,1.87,0,0,1,.85,1.83v5.15A2.12,2.12,0,0,1,108.59,123.13Z"/><polygon class="cls-1" points="47.33 90.07 47.33 94.73 45.97 94.73 45.97 90.07 43.52 90.07 43.52 88.96 49.78 88.96 49.78 90.07 47.33 90.07"/><polygon class="cls-1" points="56.91 94.73 56.91 92.44 53.42 92.44 53.42 94.73 52.05 94.73 52.05 88.96 53.42 88.96 53.42 91.26 56.91 91.26 56.91 88.96 58.27 88.96 58.27 94.73 56.91 94.73"/><polygon class="cls-1" points="61 94.73 61 88.96 66.61 88.96 66.61 90.07 62.37 90.07 62.37 91.28 65.74 91.28 65.74 92.32 62.37 92.32 62.37 93.62 66.67 93.62 66.67 94.73 61 94.73"/><path class="cls-1" d="M53.06,136.17H47.78a.5.5,0,0,1-.52-.56v-4.77a.49.49,0,0,1,.52-.55h5.28a.5.5,0,0,1,.53.55v1.61H52.2v-1.06H48.65v3.68H52.2v-1.13h1.39v1.67a.51.51,0,0,1-.53.56"/><path class="cls-1" d="M62.28,136.17H56.89a.5.5,0,0,1-.52-.56v-4.77a.49.49,0,0,1,.52-.55h5.39a.49.49,0,0,1,.51.55v4.77a.5.5,0,0,1-.51.56m-.88-4.78H57.76v3.68H61.4Z"/><polygon class="cls-1" points="35.63 93.3 26.95 93.3 25.04 90.99 35.63 90.99 35.63 93.3"/><polygon class="cls-1" points="82.7 93.3 74.34 93.3 74.34 90.99 84.61 90.99 82.7 93.3"/><polygon class="cls-1" points="35.63 134.4 25.04 134.4 26.95 132.09 35.63 132.09 35.63 134.4"/><polygon class="cls-1" points="84.61 134.4 74.34 134.4 74.34 132.09 82.7 132.09 84.61 134.4"/></g></g></svg>