<svg xmlns="http://www.w3.org/2000/svg" viewBox="0 0 391.68 136.17"><defs><style>.cls-1{fill:#231f20;}.cls-16,.cls-2,.cls-23,.cls-9{font-size:5.42px;font-family:JMHTypewritermonoBlack-Regular, JMH Typewriter mono Black;}.cls-2{letter-spacing:0.18em;}.cls-3{letter-spacing:0.18em;}.cls-4{letter-spacing:0.19em;}.cls-5{letter-spacing:0.18em;}.cls-6{letter-spacing:0.14em;}.cls-7{letter-spacing:0.2em;}.cls-8{letter-spacing:0.13em;}.cls-9{letter-spacing:0.01em;}.cls-10{letter-spacing:0.02em;}.cls-11{letter-spacing:0em;}.cls-12{letter-spacing:0.01em;}.cls-13{letter-spacing:-0.05em;}.cls-14{letter-spacing:-0.04em;}.cls-15{letter-spacing:-0.04em;}.cls-17{letter-spacing:0.03em;}.cls-18{letter-spacing:0.01em;}.cls-19{letter-spacing:0.05em;}.cls-20{letter-spacing:0.06em;}.cls-21{letter-spacing:0.06em;}.cls-22{letter-spacing:0.04em;}.cls-23{letter-spacing:0.27em;}.cls-24{letter-spacing:0.29em;}.cls-25{letter-spacing:0.27em;}.cls-26{letter-spacing:0.28em;}.cls-27{letter-spacing:0.27em;}.cls-28{letter-spacing:0.24em;}</style></defs><title>Asset 2</title><g id="Layer_2" data-name="Layer 2"><g id="Header"><path class="cls-1" d="M203.61,16,195.26,0l-8.35,16H165.54V79.68h27.31V63.88l4.34-3.56V79.68H225V16Zm-8.35-5.71L206,30.81h-8.79V45l-4.34,3.45V30.81h-8.3Zm6.86,65.05V51.62l-7.94,6.14-1.33,1.06v0l-4.79,3.71V75.34H167.24l3-2.17V22.51l-3-2.17h17.41l-7.93,15.19h11.34V57.41l14.06-11.47V35.53h11.7l-7.94-15.19h17.31l-2.86,2.09V72.88l3.37,2.46Z"/><path class="cls-1" d="M148.29,123.13v-8.57H145v8.57h-4.64V102.28H145v7.92h3.31v-7.92H153v20.85Z"/><path class="cls-1" d="M158.65,123.13V102.28h10.81v4.12h-6.17v4h5v4h-5V119h6.25v4.12Z"/><path class="cls-1" d="M175.08,123.13V102.28h4.64v20.85Z"/><path class="cls-1" d="M195.58,123.13h-7.86c-1.61,0-2.35-.79-2.35-2.43v-16c0-1.64.77-2.43,2.38-2.43h7.83a2.11,2.11,0,0,1,2.4,2.43v4h-4.67v-2.46H190v13h3.3V115h-2.43v-3.9H198v9.6A2.11,2.11,0,0,1,195.58,123.13Z"/><path class="cls-1" d="M211.62,123.13v-8.57h-3.3v8.57h-4.64V102.28h4.64v7.92h3.3v-7.92h4.67v20.85Z"/><path class="cls-1" d="M230,106.4v16.73h-4.64V106.4h-3.66v-4.12h12v4.12Z"/><path class="cls-1" d="M248.93,123.13h-7.5c-1.61,0-2.38-.79-2.38-2.43v-4.58h4.64v3.22h3v-3l-6.83-4.67a1.79,1.79,0,0,1-.79-1.8v-5.13c0-1.64.77-2.43,2.38-2.43H249c1.61,0,2.37.76,2.37,2.4v4.42h-4.66v-3h-3v3l6.8,4.64a1.87,1.87,0,0,1,.84,1.83v5.15A2.12,2.12,0,0,1,248.93,123.13Z"/><polygon class="cls-1" points="187.67 90.07 187.67 94.73 186.31 94.73 186.31 90.07 183.86 90.07 183.86 88.96 190.12 88.96 190.12 90.07 187.67 90.07"/><polygon class="cls-1" points="197.25 94.73 197.25 92.44 193.76 92.44 193.76 94.73 192.4 94.73 192.4 88.96 193.76 88.96 193.76 91.26 197.25 91.26 197.25 88.96 198.62 88.96 198.62 94.73 197.25 94.73"/><polygon class="cls-1" points="201.34 94.73 201.34 88.96 206.95 88.96 206.95 90.07 202.71 90.07 202.71 91.28 206.09 91.28 206.09 92.32 202.71 92.32 202.71 93.62 207.01 93.62 207.01 94.73 201.34 94.73"/><path class="cls-1" d="M193.41,136.17h-5.29a.5.5,0,0,1-.52-.56v-4.77a.49.49,0,0,1,.52-.55h5.29a.5.5,0,0,1,.53.55v1.61h-1.4v-1.06H189v3.68h3.54v-1.13h1.4v1.67a.51.51,0,0,1-.53.56"/><path class="cls-1" d="M202.62,136.17h-5.39a.5.5,0,0,1-.51-.56v-4.77a.49.49,0,0,1,.51-.55h5.39a.49.49,0,0,1,.51.55v4.77a.5.5,0,0,1-.51.56m-.88-4.78h-3.63v3.68h3.63Z"/><polygon class="cls-1" points="175.98 93.3 167.29 93.3 165.38 90.99 175.98 90.99 175.98 93.3"/><polygon class="cls-1" points="223.05 93.3 214.68 93.3 214.68 90.99 224.96 90.99 223.05 93.3"/><polygon class="cls-1" points="175.98 134.4 165.38 134.4 167.29 132.09 175.98 132.09 175.98 134.4"/><polygon class="cls-1" points="224.96 134.4 214.68 134.4 214.68 132.09 223.05 132.09 224.96 134.4"/><text class="cls-2" transform="translate(52.11 111.22)">P<tspan class="cls-3" x="4.96" y="0">R</tspan><tspan class="cls-4" x="9.88" y="0">E</tspan><tspan class="cls-5" x="14.86" y="0">M</tspan><tspan class="cls-6" x="19.78" y="0">I</tspan><tspan class="cls-7" x="24.53" y="0">U</tspan><tspan class="cls-8" x="29.61" y="0">M</tspan></text><text class="cls-9" transform="translate(53.13 118.27)">C<tspan class="cls-10" x="4" y="0">A</tspan><tspan x="8.09" y="0">N</tspan><tspan class="cls-11" x="12.1" y="0">N</tspan><tspan class="cls-12" x="16.07" y="0">A</tspan><tspan class="cls-13" x="20.08" y="0">B</tspan><tspan class="cls-14" x="23.81" y="0">I</tspan><tspan class="cls-15" x="27.57" y="0">S</tspan></text><text class="cls-16" transform="translate(306.09 111.22)"><tspan class="cls-17">PO</tspan><tspan class="cls-18" x="8.3" y="0">R</tspan><tspan class="cls-19" x="12.32" y="0">T</tspan><tspan class="cls-20" x="16.56" y="0">L</tspan><tspan class="cls-21" x="20.88" y="0">A</tspan><tspan class="cls-22" x="25.19" y="0">N</tspan><tspan x="29.41" y="0">D</tspan></text><text class="cls-23" transform="translate(307.14 118.27)">O<tspan class="cls-24" x="5.46" y="0">R</tspan><tspan class="cls-25" x="10.98" y="0">E</tspan><tspan class="cls-26" x="16.42" y="0">G</tspan><tspan class="cls-27" x="21.88" y="0">O</tspan><tspan class="cls-28" x="27.3" y="0">N</tspan></text></g></g></svg>